<svg width="256" height="256" viewBox="0 0 256 256" fill="none" xmlns="http://www.w3.org/2000/svg">
<g clip-path="url(#clip0_6_2)">
<path d="M128 24C107.431 24 87.3235 30.0995 70.2207 41.5272C53.118 52.9548 39.7881 69.1974 31.9166 88.2009C24.0451 107.204 21.9855 128.115 25.9984 148.289C30.0112 168.463 39.9163 186.994 54.4609 201.539C69.0056 216.084 87.5366 225.989 107.711 230.002C127.885 234.015 148.796 231.955 167.799 224.083C186.803 216.212 203.045 202.882 214.473 185.779C225.901 168.677 232 148.569 232 128C231.947 100.434 220.973 74.0116 201.481 54.5193C181.988 35.0269 155.566 24.0529 128 24V24ZM126 72C128.373 72 130.693 72.7038 132.667 74.0224C134.64 75.3409 136.178 77.2151 137.087 79.4078C137.995 81.6005 138.232 84.0133 137.769 86.3411C137.306 88.6689 136.164 90.8071 134.485 92.4853C132.807 94.1635 130.669 95.3064 128.341 95.7694C126.013 96.2324 123.601 95.9948 121.408 95.0866C119.215 94.1783 117.341 92.6402 116.022 90.6668C114.704 88.6934 114 86.3734 114 84C114 80.8174 115.264 77.7652 117.515 75.5147C119.765 73.2643 122.817 72 126 72ZM136 184H128C125.878 184 123.843 183.157 122.343 181.657C120.843 180.157 120 178.122 120 176V128C117.878 128 115.843 127.157 114.343 125.657C112.843 124.157 112 122.122 112 120C112 117.878 112.843 115.843 114.343 114.343C115.843 112.843 117.878 112 120 112H128C130.122 112 132.157 112.843 133.657 114.343C135.157 115.843 136 117.878 136 120V168C138.122 168 140.157 168.843 141.657 170.343C143.157 171.843 144 173.878 144 176C144 178.122 143.157 180.157 141.657 181.657C140.157 183.157 138.122 184 136 184Z" fill="white"/>
</g>
<defs>
<clipPath id="clip0_6_2">
<rect width="256" height="256" fill="white"/>
</clipPath>
</defs>
</svg>
